<mxfile host="app.diagrams.net" modified="2020-12-15T06:21:21.182Z" agent="5.0 (Windows NT 10.0; Win64; x64) AppleWebKit/537.36 (KHTML, like Gecko) Chrome/87.0.4280.88 Safari/537.36 Edg/87.0.664.60" etag="dmPm7e74H_c9LhtN2ENs" version="14.0.1" type="github">
  <diagram name="Page-1" id="74e2e168-ea6b-b213-b513-2b3c1d86103e">
    <mxGraphModel dx="1038" dy="588" grid="1" gridSize="10" guides="1" tooltips="1" connect="1" arrows="1" fold="1" page="1" pageScale="1" pageWidth="1100" pageHeight="850" background="#ffffff" math="0" shadow="0">
      <root>
        <mxCell id="0" />
        <mxCell id="1" parent="0" />
        <mxCell id="c1xv-bJrXVQKWUMEGjMt-4" value="" style="edgeStyle=orthogonalEdgeStyle;rounded=0;orthogonalLoop=1;jettySize=auto;html=1;" edge="1" parent="1" source="c1xv-bJrXVQKWUMEGjMt-2" target="c1xv-bJrXVQKWUMEGjMt-3">
          <mxGeometry relative="1" as="geometry" />
        </mxCell>
        <mxCell id="c1xv-bJrXVQKWUMEGjMt-2" value="开始" style="strokeWidth=2;html=1;shape=mxgraph.flowchart.terminator;whiteSpace=wrap;" vertex="1" parent="1">
          <mxGeometry x="240" y="120" width="100" height="60" as="geometry" />
        </mxCell>
        <mxCell id="c1xv-bJrXVQKWUMEGjMt-6" value="" style="edgeStyle=orthogonalEdgeStyle;rounded=0;orthogonalLoop=1;jettySize=auto;html=1;" edge="1" parent="1" source="c1xv-bJrXVQKWUMEGjMt-3" target="c1xv-bJrXVQKWUMEGjMt-5">
          <mxGeometry relative="1" as="geometry" />
        </mxCell>
        <mxCell id="c1xv-bJrXVQKWUMEGjMt-3" value="step1" style="whiteSpace=wrap;html=1;strokeWidth=2;" vertex="1" parent="1">
          <mxGeometry x="230" y="260" width="120" height="60" as="geometry" />
        </mxCell>
        <mxCell id="c1xv-bJrXVQKWUMEGjMt-10" value="" style="edgeStyle=orthogonalEdgeStyle;rounded=0;orthogonalLoop=1;jettySize=auto;html=1;" edge="1" parent="1" source="c1xv-bJrXVQKWUMEGjMt-5" target="c1xv-bJrXVQKWUMEGjMt-9">
          <mxGeometry relative="1" as="geometry" />
        </mxCell>
        <mxCell id="c1xv-bJrXVQKWUMEGjMt-5" value="step1" style="whiteSpace=wrap;html=1;strokeWidth=2;" vertex="1" parent="1">
          <mxGeometry x="230" y="400" width="120" height="60" as="geometry" />
        </mxCell>
        <mxCell id="c1xv-bJrXVQKWUMEGjMt-9" value="结束" style="strokeWidth=2;html=1;shape=mxgraph.flowchart.terminator;whiteSpace=wrap;" vertex="1" parent="1">
          <mxGeometry x="240" y="520" width="100" height="60" as="geometry" />
        </mxCell>
      </root>
    </mxGraphModel>
  </diagram>
</mxfile>
